<svg xmlns="http://www.w3.org/2000/svg" viewBox="0 0 64 64" width="64" height="64">
  <rect width="64" height="64" rx="12" fill="#0b1d33"/>
  <g fill="#ff2d8b" fill-rule="evenodd">
    <path d="M12 20 H22 Q30 20 30 34 Q30 48 22 48 H12 Z M18 26 H21 Q24 26 24 34 Q24 42 21 42 H18 Z"/>
    <path d="M32 20 H42 Q50 20 50 34 Q50 48 42 48 H32 Z M38 26 H41 Q44 26 44 34 Q44 42 41 42 H38 Z"/>
  </g>
  <g fill="#f3efe6" fill-rule="evenodd">
    <path d="M10 18 H20 Q28 18 28 32 Q28 46 20 46 H10 Z M16 24 H19 Q22 24 22 32 Q22 40 19 40 H16 Z"/>
    <path d="M30 18 H40 Q48 18 48 32 Q48 46 40 46 H30 Z M36 24 H39 Q42 24 42 32 Q42 40 39 40 H36 Z"/>
  </g>
</svg>
